<svg xmlns="http://www.w3.org/2000/svg" version="1.1" xmlns:xlink="http://www.w3.org/1999/xlink" xmlns:svgjs="http://svgjs.dev/svgjs" width="2000" height="631" viewBox="0 0 2000 631"><g transform="matrix(1,0,0,1,-1.2112696095522324,0.3243930408946767)"><svg viewBox="0 0 396 125" data-background-color="#ffffff" preserveAspectRatio="xMidYMid meet" height="631" width="2000" xmlns="http://www.w3.org/2000/svg" xmlns:xlink="http://www.w3.org/1999/xlink"><g id="tight-bounds" transform="matrix(1,0,0,1,0.24008861730862918,-0.06425689843806026)"><svg viewBox="0 0 395.52 125.12851859433638" height="125.12851859433638" width="395.52"><g><svg viewBox="0 0 395.52 125.12851859433638" height="125.12851859433638" width="395.52"><g><svg viewBox="0 0 395.52 125.12851859433638" height="125.12851859433638" width="395.52"><g id="textblocktransform"><svg viewBox="0 0 395.52 125.12851859433638" height="125.12851859433638" width="395.52" id="textblock"><g><svg viewBox="0 0 395.52 125.12851859433638" height="125.12851859433638" width="395.52"><path d="M394.594 26.838C392.735 13.849 387.435 10.239 387.435 10.239 371.165-3.139 350.86-0.256 332.619 1.666 300.414 1.744 268.339 4.602 236.208 6.134 168.767 6.368 100.749 2.524 33.643 12.005 27.339 14.914-6.54 12.577 1.121 28.5 3.129 35.124 10.456 42.476 10.232 48.554 11.236 49.619 12.631 47.177 13.226 48.71 15.309 52.84 18.711 50.892 21.501 53.334 17.614 59.854 20.403 65.283 23.062 70.972 18.377 72.453 12.371 71.751 9.675 76.661 9.396 80.22 7.89 79.544 6.235 79.388 5.026 79.284 2.59 79.674 2.999 80.791 4.394 84.61-1.594 86.818 2.162 90.558-0.422 94.611 3.948 98.117 3.353 102.507 3.278 103.391 3.687 104.144 4.338 104.352 7.22 105.469 3.018 107.651 3.464 110.015 33.029 126.172 65.104 115.002 95.394 122.432 103.259 117.236 97.346 124.276 100.489 123.185 102.943 121.912 104.728 127.185 107.499 124.198 107.927 123.341 107.276 121.315 108.8 121.704 109.6 121.912 110.307 121.86 110.418 120.665 110.586 118.873 109.117 119.99 108.726 119.055 112.947 114.327 111.906 125.575 115.866 125.107 115.68 123.73 114.528 121.756 116.889 122.016 119.232 120.042 119.306 118.405 121.389 122.847 121.463 123.808 121.835 124.484 122.43 124.951 128.938 120.12 135.409 126.666 142.233 124.484 146.417 122.094 150.433 125.783 154.672 124.873 156.16 124.146 157.666 122.847 159.098 125.029 176.632 125.497 195.319 123.549 211.943 125.107 256.364 122.198 303.836 126.302 350.674 122.458 361.719 120.977 373.192 118.873 383.958 117.184 383.958 117.184 392.679 112.56 392.679 91.779S394.538 73.596 394.817 57.048C395.096 40.501 396.398 39.826 394.538 26.838Z" opacity="1" fill="#50a060" data-fill-palette-color="tertiary"></path><g transform="matrix(1,0,0,1,55.76832,26.230666666666668)"><svg width="283.98335999999995" viewBox="2 -37.5 195.37 50" height="72.66718526100306" data-palette-color="#ffffff"><path d="M6.7 0L2 0 2-36.4 6.7-37.45 6.7-25 12.65-25 11.55-20.3 6.7-20.3 6.7 0ZM18.35 0L13.65 0 13.65-36.45 18.35-37.5 18.35-25 24.1-25Q25.6-25 26.65-23.93 27.7-22.85 27.7-21.35L27.7-21.35 27.7 0 23 0 23-18.5Q23-19.25 22.47-19.78 21.95-20.3 21.2-20.3L21.2-20.3 18.35-20.3 18.35 0ZM44.3 0L33.84 0Q32.34 0 31.27-1.07 30.2-2.15 30.2-3.65L30.2-3.65 30.2-21.4Q30.2-22.9 31.27-23.95 32.34-25 33.84-25L33.84-25 40.65-25Q42.2-25 43.25-23.95 44.3-22.9 44.3-21.4L44.3-21.4 44.3-13.8Q44.3-12.3 43.25-11.23 42.2-10.15 40.65-10.15L40.65-10.15 34.9-10.15 34.9-6.5Q34.9-5.75 35.42-5.23 35.95-4.7 36.75-4.7L36.75-4.7 43.25-4.7 44.3 0ZM34.9-18.5L34.9-14.85 37.8-14.85Q38.55-14.85 39.07-15.38 39.59-15.9 39.59-16.65L39.59-16.65 39.59-18.5Q39.59-19.25 39.07-19.78 38.55-20.3 37.8-20.3L37.8-20.3 36.75-20.3Q35.95-20.3 35.42-19.78 34.9-19.25 34.9-18.5L34.9-18.5ZM65.74 0L55.29 0 55.29-36.45 59.99-37.5 59.99-25 65.74-25Q67.24-25 68.32-23.95 69.39-22.9 69.39-21.35L69.39-21.35 69.39-3.65Q69.39-2.15 68.32-1.07 67.24 0 65.74 0L65.74 0ZM59.99-20.3L59.99-4.7 62.84-4.7Q63.59-4.7 64.14-5.23 64.69-5.75 64.69-6.5L64.69-6.5 64.69-18.5Q64.69-19.25 64.14-19.78 63.59-20.3 62.84-20.3L62.84-20.3 59.99-20.3ZM77.09 0L72.39 0 72.39-36.35 77.09-37.4 77.09 0ZM91.44 0L84.64 0Q83.09 0 82.04-1.07 80.99-2.15 80.99-3.65L80.99-3.65 80.99-21.35Q80.99-22.85 82.04-23.93 83.09-25 84.64-25L84.64-25 91.44-25Q92.94-25 93.99-23.93 95.04-22.85 95.04-21.35L95.04-21.35 95.04-3.65Q95.04-2.15 93.99-1.07 92.94 0 91.44 0L91.44 0ZM87.49-4.7L87.49-4.7 88.54-4.7Q89.29-4.7 89.84-5.23 90.39-5.75 90.39-6.5L90.39-6.5 90.39-18.5Q90.39-19.25 89.84-19.78 89.29-20.3 88.54-20.3L88.54-20.3 87.49-20.3Q86.74-20.3 86.21-19.78 85.69-19.25 85.69-18.5L85.69-18.5 85.69-6.5Q85.69-5.75 86.21-5.23 86.74-4.7 87.49-4.7ZM108.53 12.5L101.73 12.5Q100.28 12.5 99.18 11.45 98.08 10.4 98.08 8.85L98.08 8.85 98.08 3.4 102.78 4.5 102.78 6Q102.78 6.7 103.33 7.25 103.88 7.8 104.58 7.8L104.58 7.8 105.68 7.8Q106.48 7.8 106.98 7.25 107.48 6.7 107.48 6L107.48 6 107.48 0 101.73 0Q100.28 0 99.18-1.05 98.08-2.1 98.08-3.65L98.08-3.65 98.08-21.35Q98.08-22.9 99.18-23.95 100.28-25 101.73-25L101.73-25 112.18-25 112.18 8.85Q112.18 10.4 111.13 11.45 110.08 12.5 108.53 12.5L108.53 12.5ZM104.58-4.7L104.58-4.7 105.68-4.7Q106.48-4.7 106.98-5.25 107.48-5.8 107.48-6.5L107.48-6.5 107.48-20.3 104.58-20.3Q103.88-20.3 103.33-19.8 102.78-19.3 102.78-18.5L102.78-18.5 102.78-6.5Q102.78-5.8 103.33-5.25 103.88-4.7 104.58-4.7ZM127.88 12.5L123.18 12.5 123.18-25 133.63-25Q135.18-25 136.23-23.95 137.28-22.9 137.28-21.35L137.28-21.35 137.28-3.65Q137.28-2.1 136.23-1.05 135.18 0 133.63 0L133.63 0 127.88 0 127.88 12.5ZM127.88-20.3L127.88-4.7 130.78-4.7Q131.48-4.7 132.03-5.25 132.58-5.8 132.58-6.5L132.58-6.5 132.58-18.45Q132.58-19.3 132.03-19.8 131.48-20.3 130.78-20.3L130.78-20.3 127.88-20.3ZM145.48-32.8L140.78-31.7 140.78-36.4 145.48-37.5 145.48-32.8ZM145.58 0L140.88 0 140.88-23.9 145.58-25 145.58 0ZM163.17 0L152.72 0Q151.22 0 150.15-1.07 149.07-2.15 149.07-3.65L149.07-3.65 149.07-21.4Q149.07-22.9 150.15-23.95 151.22-25 152.72-25L152.72-25 159.52-25Q161.07-25 162.12-23.95 163.17-22.9 163.17-21.4L163.17-21.4 163.17-13.8Q163.17-12.3 162.12-11.23 161.07-10.15 159.52-10.15L159.52-10.15 153.77-10.15 153.77-6.5Q153.77-5.75 154.3-5.23 154.82-4.7 155.62-4.7L155.62-4.7 162.12-4.7 163.17 0ZM153.77-18.5L153.77-14.85 156.67-14.85Q157.42-14.85 157.95-15.38 158.47-15.9 158.47-16.65L158.47-16.65 158.47-18.5Q158.47-19.25 157.95-19.78 157.42-20.3 156.67-20.3L156.67-20.3 155.62-20.3Q154.82-20.3 154.3-19.78 153.77-19.25 153.77-18.5L153.77-18.5ZM176.62 0L169.82 0Q168.27 0 167.22-1.07 166.17-2.15 166.17-3.65L166.17-3.65 166.17-21.35Q166.17-22.85 167.22-23.93 168.27-25 169.82-25L169.82-25 176.62-25Q178.12-25 179.2-23.93 180.27-22.85 180.27-21.35L180.27-21.35 180.27-15.9 175.57-15.9 175.57-18.5Q175.57-19.25 175.02-19.78 174.47-20.3 173.72-20.3L173.72-20.3 172.67-20.3Q171.92-20.3 171.4-19.78 170.87-19.25 170.87-18.5L170.87-18.5 170.87-6.5Q170.87-5.75 171.4-5.23 171.92-4.7 172.67-4.7L172.67-4.7 173.72-4.7Q174.47-4.7 175.02-5.23 175.57-5.75 175.57-6.5L175.57-6.5 175.57-9.1 180.27-9.1 180.27-3.65Q180.27-2.15 179.2-1.07 178.12 0 176.62 0L176.62 0ZM197.37 0L186.92 0Q185.42 0 184.34-1.07 183.27-2.15 183.27-3.65L183.27-3.65 183.27-21.4Q183.27-22.9 184.34-23.95 185.42-25 186.92-25L186.92-25 193.72-25Q195.27-25 196.32-23.95 197.37-22.9 197.37-21.4L197.37-21.4 197.37-13.8Q197.37-12.3 196.32-11.23 195.27-10.15 193.72-10.15L193.72-10.15 187.97-10.15 187.97-6.5Q187.97-5.75 188.49-5.23 189.02-4.7 189.82-4.7L189.82-4.7 196.32-4.7 197.37 0ZM187.97-18.5L187.97-14.85 190.87-14.85Q191.62-14.85 192.14-15.38 192.67-15.9 192.67-16.65L192.67-16.65 192.67-18.5Q192.67-19.25 192.14-19.78 191.62-20.3 190.87-20.3L190.87-20.3 189.82-20.3Q189.02-20.3 188.49-19.78 187.97-19.25 187.97-18.5L187.97-18.5Z" opacity="1" transform="matrix(1,0,0,1,0,0)" fill="#ffffff" class="wordmark-text-0" data-fill-palette-color="quaternary" id="text-0"></path></svg></g></svg></g></svg></g></svg></g><g></g></svg></g><defs></defs></svg><rect width="395.52" height="125.12851859433638" fill="none" stroke="none" visibility="hidden"></rect></g></svg></g></svg>